<?xml version="1.0" encoding="UTF-8" standalone="no"?>
<?xml-stylesheet type="text/css" href="./logo.css" ?>
<svg
   xmlns:svg="http://www.w3.org/2000/svg"
   xmlns="http://www.w3.org/2000/svg"
   viewBox="0 0 400 200"
   height="200"
   width="400"
   id="svg5334"
   version="1.1">
  <g
     transform="translate(75.145116,-1301.8762)">
    <g transform="matrix(0.73490808,0.18732643,-0.18192706,0.7181918,1468.0571,144.76582)">
      <g>
        <g transform="translate(-119.64092,162.71814)">
          <g>
            <path d="m -1463.6395,1923.0876 c 2.925,6.7313 5.7446,8.7862 11.9646,13.3338 11.217,5.0385 18.1362,2.4157 31.6759,-0.3329 7.8137,0.5335 12.9129,4.036 18.8255,7.0904 7.969,11.0164 17.291,21.3084 28.1817,30.7416 -3.1655,-0.6421 -6.4818,-0.8992 -10.0511,-1.0619 -8.5086,-15.5023 -29.2288,-18.5239 -49.3346,-4.2376 4.3081,6.1364 7.5739,7.776 14.779,11.4073 12.3594,3.4994 18.8349,0.1318 31.9847,-4.1596 8.0244,-0.4328 13.8898,2.3347 20.4957,4.5651 l -0.035,-0.088 c 12.0981,9.3888 25.9509,17.8128 41.8039,25.1174 -1.6901,0.2322 -3.4031,0.5172 -5.1692,0.8433 -14.9729,-12.9662 -37.513,-10.9661 -52.4817,7.6209 6.8946,4.9092 10.9132,5.7186 19.7852,7.5181 14.1249,0.4475 19.4403,-4.3458 31.2556,-11.6177 4.7985,-1.3796 9.2666,-1.4861 13.7141,-1.224 4.4838,1.9012 9.1141,3.7203 13.9057,5.4485 0,0 22.7558,6.2905 34.709,8.3144 1.0063,0.1704 2.0891,0.3393 3.2102,0.5067 -2.9672,0.7054 -5.8946,1.6487 -8.9511,2.713 -19.2449,-9.6791 -42.223,-3.9291 -52.6776,16.1875 8.5661,3.4547 12.9872,3.5303 22.7525,3.7095 14.8736,-1.9972 19.0887,-7.4347 29.4012,-16.326 7.7963,-3.5806 15.6169,-3.5933 23.8142,-4.3567 l -0.2487,-0.1557 c 17.1389,1.8782 36.2808,3.2448 36.2808,3.2447 4.698,-0.1446 9.3364,-0.345 13.9202,-0.5944 -2.3993,1.2919 -4.7048,2.7358 -7.0722,4.2902 -24.4475,-3.7007 -45.7793,7.5918 -47.5374,28.6162 10.4943,0.8724 15.1358,-0.227 25.3921,-2.6449 14.5906,-5.7437 16.5137,-11.7938 23.2212,-22.5906 5.0462,-4.1245 11.0877,-6.2994 17.372,-8.4046 19.8694,-1.4878 38.6376,-3.9851 56.3538,-7.4419 -1.6425,1.165 -3.2457,2.3977 -4.8701,3.7025 -25.2833,-1.3633 -45.1395,11.6082 -43.725,32.2713 10.7442,-0.1132 15.2705,-1.6119 25.2747,-4.9118 13.8817,-6.941 14.9081,-13.0172 20.0515,-24.1615 4.3207,-4.3294 9.8521,-6.9728 15.6587,-9.5166 19.5395,-4.4328 37.7432,-10.0826 54.6886,-16.8739 -1.9091,2.026 -3.5909,4.1728 -5.2747,6.4607 -25.8548,4.4116 -40.9634,20.7209 -31.9,39.3064 10.7306,-2.5082 14.7142,-4.8923 23.524,-10.1499 11.3506,-9.4564 10.1313,-15.2444 11.1649,-26.59 3.2863,-5.9307 9.2343,-10.0229 15.1861,-14.4353 11.4156,-5.1568 22.2256,-10.862 32.4536,-17.0913 -0.4911,0.9747 -0.9705,1.9618 -1.4403,2.9775 -25.1988,8.209 -36.9127,27.1722 -23.6634,45.0633 10.3102,-4.1058 13.8195,-7.1285 21.5821,-13.7987 9.4132,-11.3613 6.9091,-17.1603 5.4665,-29.0111 1.1737,-3.8156 3.3927,-7.1177 6.0317,-10.2713 16.28556,-10.6732 31.02655,-22.7363 44.33965,-36.0741 -0.61823,1.946 -1.12144,3.9324 -1.58835,5.998 -23.68858,12.0937 -31.3217,33.1214 -13.912,49.3493 9.52552,-5.708 12.40529,-9.3035 18.77876,-17.2411 6.99851,-12.9543 3.16924,-18.48 -0.9356,-30.3189 0.60563,-7.2443 4.92964,-13.3264 8.96979,-19.8107 7.50264,-8.4549 14.5005,-17.359 21.02191,-26.6845 l 3.63169,-22.2497 c -9.19309,16.4091 -19.45872,31.9429 -31.33138,46.3419 -6.58269,2.1394 -12.98602,4.1217 -19.84768,3.5085 -12.18997,-5.6999 -17.54849,-10.0646 -32.87179,-6.0706 -9.7494,4.3039 -14.1642,6.2467 -22.0288,13.7425 14.6736,18.3052 38.90176,15.1416 56.17051,-3.8622 4.71064,-0.1191 9.10323,-0.4113 13.60676,-1.4676 -10.64126,12.1631 -22.53054,23.4576 -36.01407,33.7161 -6.875,0.8125 -13.5317,1.5455 -19.869,-0.3546 -9.7675,-7.7 -13.5331,-12.8498 -28.9854,-11.9324 -10.3331,2.2576 -15.0106,3.2746 -24.4906,8.9168 8.5026,20.1357 32.0394,21.6769 53.5788,6.8714 4.0462,0.7032 7.886,1.2199 11.951,1.1856 -0.944,0.9247 -1.8014,1.8571 -2.5893,2.7996 -11.455,7.7957 -23.9885,14.8999 -37.7718,21.2304 -8.301,0.1118 -16.3944,0.8476 -23.5661,-1.9666 -8.5865,-8.0921 -11.625,-13.2651 -26.8342,-13.7393 -10.3745,1.2304 -15.0707,1.7824 -25.0317,6.2719 5.8078,19.6865 28.6093,23.1752 51.4884,11.1055 4.9348,1.2918 9.5775,2.2699 14.904,2.2929 -15.9,6.6521 -33.3865,12.329 -52.7026,16.9123 l 0.031,-0.011 c -7.7809,-1.8079 -15.6492,-2.8324 -21.2757,-7.3452 -4.8606,-10.0353 -5.7267,-15.9018 -19.4641,-19.7812 -9.9454,-1.0884 -14.4454,-1.5862 -25.2185,0.6858 -1.971,21.0384 17.5968,29.6387 42.9913,22.6575 4.2966,2.5547 8.4208,4.6803 13.7387,5.861 -18.3246,3.9046 -38.2273,6.87 -59.905,8.8 l 0.4882,-0.123 c -7.3127,-2.5429 -14.8288,-4.3022 -19.6303,-9.3823 -3.2159,-10.5942 -3.1702,-16.6059 -15.977,-21.7905 -9.533,-2.014 -13.8453,-2.9299 -24.6956,-1.6219 -5.1165,21.093 12.6591,31.5866 38.4823,26.8598 3.5547,2.7844 7.0199,5.1753 11.5474,6.8497 -3.1234,0.2279 -6.2801,0.4365 -9.4754,0.6262 -16.7341,0.9761 -32.8004,0.6022 -48.2561,-1.2454 l 2.5863,0.01 c -5.1448,-4.2989 -10.7977,-7.8821 -12.7227,-14.0385 1.7745,-11.1538 4.3747,-17.0197 -4.3239,-25.263 -7.2609,-4.3324 -10.5427,-6.2968 -20.341,-7.7082 -13.344,19.3511 -2.6764,34.0171 21.3307,35.7988 2.054,4.0196 4.2206,7.5331 8.056,10.4979 -16.802,-2.4102 -32.874,-6.6187 -48.2819,-12.8082 -0.4397,-0.1766 -0.8643,-0.3565 -1.3011,-0.5338 -3.4365,-4.6456 -7.0687,-8.9581 -7.196,-14.9138 4.7212,-10.9742 8.7802,-16.4717 2.8067,-26.2347 -5.6819,-5.575 -8.2484,-8.1013 -17.1259,-11.1446 -17.8954,17.3448 -11.8126,33.9212 10.3961,39.684 0.6358,3.3109 1.4107,6.3412 2.9543,9.1853 -19.5849,-8.4894 -36.1393,-17.7691 -50.2896,-28.5776 -0.9838,-3.9227 -1.6134,-7.8243 0,-12.2008 8.221,-9.3316 13.8402,-13.6363 12.1333,-24.1543 -2.9884,-6.5007 -4.3356,-9.4442 -11.0878,-14.2509 -22.2444,12.4761 -22.9444,29.4492 -5.3716,39.7272 -0.4695,2.3449 -0.8239,4.5689 -0.8662,6.756 -11.484,-9.4854 -21.3079,-20.1335 -29.8658,-32.3875 -0.206,-4.3225 -0.1447,-8.5569 2.4173,-13.0238 9.7967,-8.4462 16.0772,-12.1195 16.5385,-22.9692 -1.5792,-6.9399 -2.2878,-10.0822 -7.8362,-15.7643 -23.9491,9.9284 -28.0248,27.018 -13.1387,39.5475 -0.8372,2.1018 -1.5605,4.1141 -2.0455,6.1187 -5.4135,-8.4859 -10.2991,-17.7086 -14.7671,-27.8046 l -6.7832,-15.3282 c 5.0279,-9.7874 8.9352,-14.8906 3.8961,-24.081 -5.1414,-5.4438 -7.4633,-7.9111 -15.838,-11.0346 -17.3142,15.1424 -10.3696,28.3233 8.2724,34.8284 5.6792,16.5091 13.0425,32.1654 22.5564,46.678 -3.3287,-1.3645 -6.9535,-2.1505 -10.9363,-2.8483 -5.0991,-16.7172 -24.4731,-22.2851 -46.7228,-10.2659 z" />
          </g>
        </g>
      </g>
    </g>
  </g>
</svg>
